<?xml version="1.0" standalone="no"?>
<!DOCTYPE svg PUBLIC "-//W3C//DTD SVG 20010904//EN"
 "http://www.w3.org/TR/2001/REC-SVG-20010904/DTD/svg10.dtd">
<svg version="1.0" xmlns="http://www.w3.org/2000/svg"
 width="1024.000000pt" height="1024.000000pt" viewBox="0 0 1024.000000 1024.000000"
 preserveAspectRatio="xMidYMid meet">

<g transform="translate(0.000000,1024.000000) scale(0.100000,-0.100000)"
fill="#000000" stroke="none">
<path d="M0 5120 l0 -5120 5120 0 5120 0 0 5120 0 5120 -5120 0 -5120 0 0
-5120z m5540 2581 c345 -47 596 -108 819 -198 315 -127 540 -266 809 -498 57
-49 236 -260 310 -365 44 -63 106 -144 137 -180 83 -93 121 -187 140 -342 5
-39 18 -63 71 -129 154 -194 239 -470 251 -819 6 -184 -8 -312 -52 -455 -33
-106 -78 -191 -99 -187 -19 3 -22 -14 -3 -21 7 -3 5 -6 -5 -6 -11 -1 -15 -6
-12 -16 4 -8 -1 -17 -10 -21 -9 -3 -13 -10 -10 -15 3 -6 -24 -39 -60 -74 -46
-45 -89 -76 -149 -105 -80 -38 -132 -54 -97 -29 12 8 10 9 -10 5 -14 -3 -32
-6 -40 -7 -10 0 -8 -3 5 -9 18 -7 16 -9 -12 -15 -30 -7 -33 -11 -33 -45 0 -48
-11 -101 -19 -95 -4 2 -7 -12 -7 -30 0 -40 -10 -53 -26 -37 -23 23 -27 17 -48
-65 -4 -19 -4 -31 1 -27 12 7 11 2 -6 -39 -8 -19 -11 -37 -8 -41 9 -8 -27 -76
-39 -76 -5 0 -6 6 -2 13 5 9 3 9 -7 -1 -12 -11 -12 -14 0 -21 17 -11 0 -22
-27 -16 -14 2 -19 -1 -16 -9 3 -7 -6 -21 -18 -31 -13 -11 -17 -13 -10 -5 22
26 12 34 -13 10 -13 -12 -22 -26 -20 -30 3 -5 -2 -11 -11 -14 -9 -4 -14 -13
-10 -21 3 -8 0 -14 -6 -12 -7 1 -12 -3 -13 -10 0 -6 -3 -14 -7 -18 -4 -4 -5
-12 -4 -18 2 -7 1 -8 -2 -4 -7 13 -31 -13 -25 -28 3 -10 -1 -13 -14 -11 -16 3
-48 -19 -48 -34 0 -3 -4 -4 -9 -2 -12 4 -37 -19 -31 -28 3 -5 1 -11 -5 -15 -5
-3 -10 -2 -10 2 0 17 -55 5 -123 -27 -37 -18 -65 -35 -62 -40 2 -4 -8 -5 -23
-3 -20 3 -23 2 -13 -6 12 -8 10 -12 -12 -22 -20 -9 -24 -15 -15 -21 8 -5 -1
-8 -24 -8 -57 0 -138 -22 -138 -37 0 -7 -4 -13 -9 -13 -5 0 -18 -3 -28 -7 -16
-6 -16 -5 -5 9 12 15 8 16 -45 11 -72 -7 -66 4 7 14 35 5 -8 8 -126 6 -224 -2
-207 0 -200 -19 5 -13 1 -15 -24 -12 -24 4 -30 1 -30 -14 0 -10 4 -26 9 -36 5
-9 17 -35 27 -57 9 -22 41 -89 71 -149 39 -80 52 -118 49 -139 -3 -22 -1 -27
10 -23 8 3 14 1 14 -5 0 -5 -7 -12 -15 -15 -8 -4 -15 -10 -15 -16 0 -5 5 -6
12 -2 8 5 9 2 5 -9 -4 -11 1 -20 13 -27 11 -6 20 -15 20 -21 0 -6 -4 -7 -10
-4 -6 4 -7 -1 -3 -11 4 -11 8 -13 11 -6 2 7 8 10 13 6 5 -3 9 0 9 7 0 7 3 9 7
6 3 -4 -2 -15 -11 -26 -13 -14 -14 -21 -5 -27 7 -4 10 -3 6 3 -10 15 20 24 31
10 6 -7 13 -26 17 -42 5 -24 4 -27 -5 -15 -9 12 -10 10 -8 -10 2 -18 -1 -24
-12 -22 -8 2 -12 0 -8 -3 4 -4 3 -16 -2 -26 -7 -12 -6 -19 3 -22 6 -3 -4 -6
-23 -6 -42 -1 -66 12 -55 29 5 8 4 11 -3 6 -6 -3 -16 3 -22 15 -9 16 -9 20 0
14 8 -5 11 -1 8 11 -2 11 -9 18 -16 17 -6 -2 -9 4 -5 13 3 8 -3 22 -13 30 -11
9 -14 13 -8 10 19 -9 24 35 8 63 -14 24 -13 14 3 -26 6 -15 4 -16 -9 -5 -12
10 -17 10 -20 1 -2 -7 -30 41 -61 106 -57 116 -63 146 -33 168 7 6 4 7 -6 3
-10 -3 -18 -1 -18 5 0 6 -5 7 -12 3 -6 -4 -8 -3 -5 4 4 5 4 18 1 27 -6 13 -9
14 -16 3 -7 -9 -8 -5 -4 13 3 15 0 34 -9 45 -13 18 -14 18 -9 -6 8 -39 -61
108 -81 172 -15 46 -24 60 -54 76 -20 10 -35 24 -34 30 2 6 -3 9 -11 6 -20 -8
-158 90 -216 153 -87 95 -159 213 -205 336 -10 26 -21 47 -26 47 -8 0 -226
-77 -286 -101 -18 -8 -33 -16 -33 -20 0 -22 97 -108 197 -175 65 -44 154 -108
199 -144 99 -80 207 -198 199 -218 -4 -10 0 -12 11 -8 13 5 15 2 11 -15 -4
-14 -2 -19 7 -16 15 6 49 -46 38 -58 -4 -5 -1 -5 5 -1 16 9 136 -172 128 -193
-3 -7 -1 -19 3 -25 16 -20 24 -69 11 -60 -8 4 -9 3 -5 -4 5 -8 13 -9 25 -3 14
8 21 4 35 -22 l18 -32 -22 25 -21 25 7 -25 c7 -26 23 -42 35 -34 4 2 11 -2 16
-9 13 -16 78 -137 87 -161 6 -17 5 -17 -10 -5 -15 12 -16 11 -10 -9 5 -14 3
-22 -5 -22 -7 0 -8 -4 -2 -12 5 -7 14 -24 20 -38 9 -23 8 -25 -18 -27 -23 -2
-32 4 -44 27 -17 32 -39 51 -28 24 5 -13 3 -15 -7 -9 -8 5 -11 3 -8 -6 3 -8
10 -13 16 -12 5 1 13 -4 16 -12 8 -21 -15 -14 -36 12 -10 11 -18 23 -18 26 0
2 -29 57 -65 122 -39 70 -56 110 -43 99 20 -18 20 -17 -3 23 -13 23 -26 37
-30 32 -3 -6 -34 37 -68 95 -34 58 -60 110 -56 116 3 5 0 8 -7 5 -7 -2 -32 21
-56 54 -86 115 -211 229 -357 327 -169 112 -230 162 -280 232 -21 28 -43 52
-48 52 -5 0 -46 -13 -91 -29 -46 -16 -141 -44 -212 -63 -123 -31 -137 -33
-304 -32 -161 0 -182 3 -265 28 -271 83 -468 266 -544 506 -17 53 -41 198 -41
246 0 8 -58 9 -203 6 -294 -7 -439 23 -635 128 -387 209 -574 664 -486 1185
66 394 282 785 623 1125 283 283 540 440 1035 631 313 120 557 175 1001 223
22 2 155 2 295 1 189 -3 295 -9 410 -24z m1177 -4397 c-3 -3 -12 -4 -19 -1 -8
3 -5 6 6 6 11 1 17 -2 13 -5z m-304 -11 c-13 -2 -33 -2 -45 0 -13 2 -3 4 22 4
25 0 35 -2 23 -4z m260 0 c-7 -2 -19 -2 -25 0 -7 3 -2 5 12 5 14 0 19 -2 13
-5z m3017 -2513 c0 -5 -5 -10 -11 -10 -5 0 -7 5 -4 10 3 6 8 10 11 10 2 0 4
-4 4 -10z m-3 -43 c11 4 14 2 9 -8 -3 -8 -9 -22 -12 -31 -4 -10 -11 -18 -16
-18 -5 0 -6 -5 -2 -12 4 -6 3 -8 -3 -5 -9 6 -10 35 -4 77 2 10 4 11 7 3 3 -7
12 -9 21 -6z m23 -53 c0 -8 5 -15 10 -15 6 -1 15 -3 20 -4 6 -1 13 -3 18 -4 4
-1 0 -6 -8 -11 -12 -8 -10 -10 10 -11 14 0 19 -3 13 -6 -7 -2 -13 -9 -13 -14
0 -6 4 -8 9 -4 15 9 24 -14 11 -30 -14 -17 4 -15 38 3 12 7 22 8 22 3 0 -5 -6
-12 -12 -15 -7 -3 -3 -3 10 0 12 3 22 1 22 -6 0 -6 10 -8 25 -4 43 11 27 -10
-26 -33 -27 -12 -47 -18 -44 -13 3 4 -4 6 -16 3 -12 -3 -18 -11 -15 -19 3 -8
-1 -14 -10 -14 -8 0 -12 -5 -9 -10 3 -6 -1 -13 -9 -16 -9 -3 -16 -12 -16 -19
0 -8 -5 -17 -11 -20 -6 -4 -9 0 -7 11 2 11 -2 18 -10 16 -7 -1 -15 5 -18 13
-11 27 -24 16 -24 -21 0 -22 -4 -33 -11 -29 -6 4 -8 14 -5 22 3 8 2 11 -3 8
-5 -3 -12 -1 -16 5 -4 6 -10 8 -15 5 -4 -3 -13 2 -19 9 -10 12 -8 14 11 10 21
-4 21 -4 -2 6 -14 6 -33 21 -43 33 -11 12 -17 15 -14 7 4 -12 -7 -10 -49 10
-29 14 -53 28 -53 32 -1 4 6 5 14 2 8 -4 15 -1 15 5 0 6 7 11 16 11 8 0 22 7
31 15 11 12 19 13 28 5 15 -12 30 3 20 20 -3 6 1 10 9 10 9 0 16 7 16 15 0 8
5 15 10 15 6 0 10 6 10 14 0 8 5 18 12 22 7 4 8 3 4 -5 -7 -11 29 -50 47 -51
4 0 7 16 7 36 0 21 4 33 10 29 6 -3 10 -13 10 -21z m-6 -287 c-4 -18 -11 -23
-25 -20 -23 6 -19 29 5 27 18 -2 22 12 4 18 -7 3 -8 10 -3 17 12 20 27 -12 19
-42z m-19 -57 c3 -5 1 -10 -4 -10 -6 0 -11 5 -11 10 0 6 2 10 4 10 3 0 8 -4
11 -10z"/>
<path d="M5004 7531 c-60 -16 -146 -45 -190 -66 l-79 -36 70 -23 c76 -25 129
-49 219 -104 l58 -35 70 77 c38 42 104 104 146 138 l76 63 -39 7 c-91 16 -217
8 -331 -21z"/>
<path d="M4445 7503 c-52 -11 -304 -75 -334 -85 l-34 -11 79 -32 c43 -17 93
-39 111 -48 36 -19 53 -21 53 -7 0 11 63 70 138 130 64 51 60 69 -13 53z"/>
<path d="M5787 7427 c18 -70 16 -216 -3 -291 -35 -136 -90 -216 -310 -447 -89
-92 -164 -182 -187 -220 -109 -186 -138 -377 -86 -572 21 -81 72 -217 80 -217
10 0 221 59 225 62 1 2 -7 41 -18 88 -26 108 -21 268 12 375 48 154 153 326
297 489 93 106 257 250 361 317 67 45 73 59 46 112 -33 64 -128 180 -187 227
-67 54 -153 103 -208 118 l-35 9 13 -50z"/>
<path d="M5535 7442 c-102 -56 -177 -119 -283 -235 l-44 -48 40 -52 c52 -70
97 -152 113 -207 7 -25 16 -49 20 -54 11 -12 91 66 150 145 80 108 102 167
103 279 0 68 -5 110 -17 148 -10 28 -22 52 -25 52 -4 0 -29 -13 -57 -28z"/>
<path d="M6294 7292 c24 -38 52 -84 61 -103 10 -19 19 -35 20 -37 2 -2 40 8
85 22 44 14 91 26 103 26 18 0 19 2 7 14 -30 28 -284 146 -315 146 -3 0 15
-31 39 -68z"/>
<path d="M4504 7259 c-15 -16 -29 -37 -30 -46 -2 -11 27 -49 70 -93 40 -41
104 -121 141 -178 l67 -102 30 42 c63 88 167 188 196 188 8 0 42 -95 42 -118
0 -6 -50 -86 -112 -179 -61 -92 -124 -192 -139 -221 -27 -51 -28 -53 -11 -82
9 -17 25 -33 35 -36 20 -6 135 -120 187 -186 l37 -46 21 84 c25 100 97 258
152 331 34 44 40 60 40 100 0 114 -53 232 -145 324 -36 36 -54 47 -69 43 -15
-5 -18 -3 -13 10 13 33 -137 120 -275 160 -46 13 -108 26 -139 29 -53 5 -59 3
-85 -24z"/>
<path d="M3659 7225 c-85 -60 -219 -186 -219 -205 0 -8 9 -10 28 -6 63 13 212
17 283 7 87 -12 147 -31 233 -72 33 -16 61 -29 63 -29 1 0 17 28 34 62 18 35
50 92 72 127 37 58 39 65 24 76 -49 35 -313 96 -413 95 -19 -1 -57 -20 -105
-55z"/>
<path d="M4282 7003 c-28 -43 -60 -102 -72 -132 -20 -51 -20 -54 -3 -73 58
-65 322 -228 368 -228 8 0 26 23 40 50 l25 50 -22 53 c-49 116 -134 236 -220
311 -29 25 -56 46 -59 46 -4 0 -29 -35 -57 -77z"/>
<path d="M6635 7045 c-5 -2 -44 -11 -86 -20 -114 -24 -112 -21 -94 -140 8 -55
15 -105 15 -111 0 -7 26 -6 83 4 124 22 360 19 477 -6 52 -11 110 -25 128 -30
17 -6 32 -7 32 -2 0 17 -252 249 -293 269 -66 32 -214 52 -262 36z"/>
<path d="M3149 6957 c-94 -65 -288 -251 -378 -361 -82 -101 -144 -187 -138
-192 2 -3 38 8 78 24 86 34 204 68 270 77 l47 7 22 96 c29 127 63 220 112 310
22 39 38 72 36 72 -2 -1 -24 -15 -49 -33z"/>
<path d="M6180 6829 c-41 -33 -96 -81 -122 -106 l-47 -47 38 -17 c75 -33 92
-33 167 6 88 47 97 58 89 115 -13 97 -17 110 -34 110 -9 -1 -50 -28 -91 -61z"/>
<path d="M3525 6853 c-63 -9 -158 -34 -206 -54 -48 -21 -49 -23 -73 -99 -46
-145 -61 -237 -61 -375 1 -71 7 -157 14 -190 17 -83 70 -255 78 -255 5 0 171
96 202 117 2 1 -15 30 -38 63 -62 94 -84 181 -79 310 6 125 30 191 90 246 32
28 41 45 47 85 9 58 31 85 72 91 33 5 89 -24 89 -45 0 -8 14 -42 31 -75 35
-71 73 -101 186 -151 39 -17 73 -31 76 -31 2 0 7 34 10 76 4 42 14 103 23 136
8 33 14 61 12 63 -22 17 -130 59 -192 75 -75 19 -196 25 -281 13z"/>
<path d="M4131 6592 c-6 -31 -11 -95 -11 -144 l0 -90 45 -58 c60 -79 207 -379
234 -480 26 -95 25 -177 -2 -194 -13 -8 -20 -8 -26 3 -5 8 -16 11 -25 8 -9 -4
-16 -2 -16 3 0 6 -9 10 -19 10 -15 0 -24 13 -36 53 -27 83 -76 197 -85 197 -9
0 -38 -67 -71 -165 -20 -57 -24 -90 -24 -180 1 -97 4 -118 29 -177 15 -37 34
-72 42 -79 10 -8 37 -5 116 15 109 27 277 59 368 71 30 4 58 9 62 11 3 2 -19
46 -50 97 -166 275 -208 545 -137 883 7 29 5 31 -70 64 -84 37 -232 130 -281
177 l-32 30 -11 -55z"/>
<path d="M6610 6623 c-110 -17 -280 -74 -280 -94 0 -5 13 -15 28 -23 48 -25
185 -140 249 -210 99 -108 163 -260 163 -387 0 -79 -33 -197 -80 -288 -50 -96
-187 -269 -275 -347 -36 -32 -65 -61 -65 -65 0 -3 26 -9 58 -12 143 -16 305
-76 422 -158 70 -49 53 -55 209 71 121 97 141 99 165 17 8 -28 12 -56 8 -62
-9 -15 -120 -115 -157 -142 l-30 -21 25 -21 c45 -37 184 -100 248 -111 67 -12
119 -6 167 18 107 54 135 112 146 297 14 238 74 375 209 476 l34 26 -13 44
c-13 45 -71 166 -96 202 -13 18 -15 15 -31 -39 -45 -157 -119 -292 -250 -461
-35 -45 -64 -87 -64 -93 0 -7 20 -50 45 -98 25 -47 45 -96 45 -109 0 -13 -11
-35 -26 -49 -27 -28 -63 -27 -97 3 -49 45 -165 290 -222 468 -5 17 -9 16 -33
-15 -42 -54 -101 -110 -117 -110 -8 0 -19 10 -26 23 -6 12 -23 32 -37 44 l-26
22 21 28 c51 65 107 168 134 246 55 156 37 257 -73 413 -77 110 -91 140 -138
304 -22 79 -50 161 -62 182 l-22 38 -65 -1 c-36 -1 -77 -3 -91 -6z"/>
<path d="M6970 6604 c0 -3 18 -73 40 -155 37 -141 44 -156 106 -250 60 -89 84
-115 84 -91 0 5 25 36 56 70 41 46 75 71 136 102 44 22 89 40 99 40 31 0 22
14 -44 76 -79 74 -190 137 -315 180 -87 30 -162 43 -162 28z"/>
<path d="M5848 6503 c-39 -43 -125 -175 -158 -245 -64 -134 -77 -321 -33 -448
l20 -55 79 -6 c43 -4 107 -10 142 -14 l63 -8 73 74 c123 126 231 338 252 498
l6 50 -62 40 c-35 21 -68 37 -75 35 -16 -7 -66 -77 -94 -133 -25 -48 -51 -156
-51 -214 0 -74 -82 -115 -131 -66 -20 20 -21 29 -16 123 6 115 32 200 91 296
20 32 36 61 36 64 0 5 -95 36 -110 36 -3 0 -18 -12 -32 -27z"/>
<path d="M3557 6502 c-47 -52 -48 -221 -2 -312 29 -58 71 -110 90 -110 41 0
285 189 285 221 0 5 -51 34 -112 65 -62 30 -138 74 -168 97 -76 59 -76 58 -93
39z"/>
<path d="M4706 6387 c-50 -75 -68 -368 -33 -511 36 -142 109 -290 189 -381
l40 -45 41 34 c23 18 74 55 114 80 l72 46 -30 88 c-70 198 -183 385 -340 558
-35 39 -37 46 -36 98 1 31 1 56 0 56 -2 0 -9 -10 -17 -23z"/>
<path d="M2900 6315 c-154 -41 -275 -102 -355 -179 l-44 -42 15 -59 c15 -56
81 -195 94 -195 3 0 18 21 34 46 72 114 187 210 324 270 54 24 62 31 58 48 -3
12 -6 47 -6 79 0 67 5 66 -120 32z"/>
<path d="M6409 6157 c-27 -137 -94 -271 -207 -410 -36 -45 -61 -82 -56 -84 5
-2 27 -14 49 -26 37 -21 40 -26 40 -67 0 -41 -3 -47 -36 -64 l-35 -19 -114 37
c-62 21 -134 40 -159 42 l-46 5 -70 -102 c-90 -131 -152 -209 -226 -285 -56
-58 -58 -62 -37 -68 13 -3 74 -6 136 -6 264 0 494 109 712 336 99 103 156 183
208 292 34 71 37 84 37 168 0 84 -3 95 -37 165 -23 47 -55 92 -87 122 -27 26
-51 47 -53 47 -2 0 -10 -37 -19 -83z"/>
<path d="M4040 6172 c0 -18 -85 -93 -175 -154 -49 -33 -159 -95 -245 -138 -85
-44 -175 -92 -199 -109 -76 -52 -150 -131 -180 -195 -37 -77 -46 -130 -31
-201 20 -98 83 -146 208 -160 95 -11 131 -66 82 -127 -25 -33 -67 -40 -148
-28 -124 20 -223 91 -274 194 -19 40 -29 48 -106 82 -102 45 -196 101 -279
166 -34 26 -67 48 -72 48 -20 0 -113 -116 -146 -183 -47 -97 -63 -194 -47
-288 17 -99 33 -126 85 -140 73 -21 204 -16 264 10 l51 23 -49 61 c-68 84
-139 212 -145 261 -7 61 12 90 65 97 48 6 50 5 116 -124 66 -127 188 -246 320
-308 96 -46 190 -62 324 -56 152 7 213 26 269 84 49 50 49 46 -3 160 -61 132
-164 214 -288 229 -45 5 -62 12 -77 32 -30 37 -26 75 11 106 38 32 82 34 170
6 132 -40 248 -143 319 -282 l44 -86 31 15 c16 9 42 24 56 34 l26 18 -23 50
c-101 211 -78 466 70 759 34 68 36 74 22 100 -16 32 -46 60 -46 44z"/>
<path d="M7489 6146 c-99 -35 -158 -99 -209 -229 -40 -101 -46 -154 -26 -247
24 -112 68 -250 80 -250 29 1 184 277 224 400 36 109 52 256 36 318 -7 26 -47
29 -105 8z"/>
<path d="M2974 5975 c-119 -68 -199 -163 -219 -261 -5 -28 -1 -37 32 -69 54
-53 217 -155 246 -155 3 0 13 26 22 58 9 31 34 89 55 128 l39 72 -46 131 c-25
72 -51 131 -57 131 -6 0 -39 -16 -72 -35z"/>
<path d="M2377 5883 c-20 -32 -57 -282 -57 -378 1 -43 2 -47 12 -30 6 11 15
24 20 30 44 53 78 107 73 115 -3 5 0 7 7 5 8 -3 28 9 46 26 30 30 31 33 17 53
-8 12 -31 50 -52 86 -50 89 -60 103 -66 93z"/>
<path d="M5510 5569 c-63 -9 -211 -59 -285 -97 -138 -69 -238 -155 -362 -309
-80 -101 -102 -118 -139 -109 -59 15 -79 68 -48 127 8 17 13 33 10 36 -9 9
-278 -38 -379 -67 -265 -77 -457 -224 -560 -432 -59 -118 -78 -190 -79 -303
-1 -171 50 -296 171 -416 60 -60 95 -86 172 -123 82 -41 106 -48 175 -53 216
-15 469 134 838 491 89 85 106 107 92 112 -33 13 -239 -5 -316 -26 -97 -28
-178 -73 -325 -181 -66 -49 -153 -106 -194 -126 -66 -34 -82 -38 -150 -38 -63
0 -81 4 -108 23 -79 56 -102 141 -84 299 15 125 47 216 106 298 52 74 101 114
191 156 84 41 171 56 374 68 207 13 309 37 445 105 165 84 359 249 482 412 59
79 103 146 103 158 0 8 -60 6 -130 -5z"/>
<path d="M7842 5362 c-50 -73 -72 -137 -72 -210 0 -56 1 -59 51 -107 27 -28
60 -66 72 -85 l22 -35 7 45 c19 126 -4 450 -32 450 -5 0 -27 -26 -48 -58z"/>
<path d="M6045 5028 c-65 -33 -189 -68 -241 -68 -59 0 -44 -15 44 -48 163 -60
252 -76 407 -76 77 0 174 6 215 13 85 13 250 61 250 71 0 9 -142 74 -205 94
-83 25 -164 37 -290 41 -118 4 -121 3 -180 -27z"/>
<path d="M5295 4959 c-58 -45 -241 -139 -332 -168 -90 -30 -218 -50 -361 -57
-231 -10 -334 -43 -410 -130 -63 -71 -102 -191 -102 -314 0 -69 14 -85 62 -75
51 11 84 31 218 130 165 122 228 158 336 194 161 54 364 64 533 27 l64 -14 46
33 c71 50 169 101 283 146 57 23 104 42 106 44 2 1 -27 17 -64 34 -85 40 -206
113 -260 157 -22 19 -47 34 -55 33 -8 0 -36 -18 -64 -40z"/>
<path d="M7742 4874 c-20 -44 -84 -135 -90 -129 -3 3 0 11 6 17 7 7 12 17 12
22 0 13 -35 -36 -35 -49 0 -13 -33 -47 -65 -66 -92 -57 -217 -73 -334 -43 -77
20 -200 76 -246 113 -19 15 -54 38 -77 51 l-43 24 -57 -27 c-32 -15 -89 -38
-127 -50 l-69 -23 47 -28 c78 -45 190 -150 235 -219 l42 -65 82 -11 c45 -7
118 -19 162 -27 108 -20 250 -20 322 1 79 23 178 79 220 126 19 21 39 36 44
33 5 -3 8 -2 7 3 -1 4 10 34 26 66 25 50 28 66 24 120 -5 61 -30 132 -60 170
-13 18 -15 17 -26 -9z"/>
<path d="M2925 4839 c-46 -29 -161 -71 -217 -78 l-50 -6 72 -43 c190 -113 520
-155 777 -97 15 4 26 20 41 62 l19 58 -136 1 c-159 1 -245 20 -379 84 -46 22
-87 40 -90 39 -4 0 -20 -9 -37 -20z"/>
<path d="M6002 4660 c-90 -12 -229 -44 -297 -69 -66 -25 -184 -82 -190 -92 -8
-12 171 -77 290 -105 78 -18 150 -27 250 -31 125 -4 153 -2 265 22 87 18 171
28 275 32 l149 6 -57 53 c-84 75 -206 137 -337 170 -73 18 -256 25 -348 14z"/>
<path d="M5303 4348 c-34 -29 -151 -135 -302 -275 -31 -29 -95 -83 -143 -120
-48 -37 -86 -68 -84 -70 1 -2 128 44 282 101 153 57 378 136 499 176 121 39
221 73 223 75 1 1 -28 10 -65 19 -37 9 -130 42 -205 72 -75 29 -143 54 -152
54 -8 0 -32 -14 -53 -32z"/>
<path d="M6441 4249 c-72 -12 -113 -33 -165 -84 -61 -60 -126 -162 -125 -194
1 -17 3 -20 6 -8 2 9 9 17 14 17 6 0 8 -4 4 -9 -3 -5 0 -13 6 -17 8 -4 9 2 5
23 -6 26 -3 31 32 51 76 42 162 56 367 56 199 1 341 -15 361 -41 16 -19 137
-40 142 -24 2 6 10 11 18 11 9 0 13 -4 10 -9 -4 -5 3 -7 14 -4 32 9 131 -7
124 -19 -5 -8 3 -9 26 -5 18 4 36 7 41 7 14 0 11 28 -3 33 -8 3 -5 6 6 6 12 1
16 6 12 16 -3 8 0 15 7 15 9 0 8 3 -1 9 -9 6 -11 22 -7 58 l7 49 -83 13 c-315
48 -440 61 -599 60 -91 -1 -189 -5 -219 -10z m629 -225 c0 -2 -7 -4 -15 -4 -8
0 -15 4 -15 10 0 5 7 7 15 4 8 -4 15 -8 15 -10z"/>
<path d="M6005 4135 c-22 -7 -121 -39 -220 -70 -99 -31 -184 -60 -188 -64 -9
-9 82 -204 110 -238 l18 -22 52 35 c77 53 128 106 187 197 50 76 96 159 96
172 0 7 -9 6 -55 -10z"/>
<path d="M7340 4019 c0 -5 5 -7 10 -4 6 3 10 8 10 11 0 2 -4 4 -10 4 -5 0 -10
-5 -10 -11z"/>
<path d="M6200 4000 c0 -5 5 -10 10 -10 6 0 10 5 10 10 0 6 -4 10 -10 10 -5 0
-10 -4 -10 -10z"/>
<path d="M7005 4000 c11 -5 27 -9 35 -9 9 0 8 4 -5 9 -11 5 -27 9 -35 9 -9 0
-8 -4 5 -9z"/>
<path d="M6591 3986 c2 -2 51 -6 109 -9 71 -3 89 -2 55 3 -51 8 -172 13 -164
6z"/>
<path d="M7088 3983 c6 -2 18 -2 25 0 6 3 1 5 -13 5 -14 0 -19 -2 -12 -5z"/>
<path d="M6848 3963 c6 -2 18 -2 25 0 6 3 1 5 -13 5 -14 0 -19 -2 -12 -5z"/>
<path d="M6575 3952 c22 -5 -4 -10 -96 -19 -69 -7 -134 -15 -144 -19 -13 -5
-16 -4 -11 4 4 7 2 12 -3 12 -6 0 -11 -5 -11 -10 0 -17 -43 -29 -64 -18 -18
10 -18 11 5 25 23 13 23 14 -11 7 -19 -4 -43 -7 -54 -6 -23 1 -15 -8 11 -13
10 -1 17 -8 16 -14 -2 -6 5 -11 14 -11 15 0 14 -2 -2 -14 -19 -13 -18 -15 18
-36 20 -12 37 -23 37 -25 0 -6 -45 8 -59 19 -11 8 -13 8 -7 -2 4 -7 25 -22 48
-33 22 -11 37 -23 34 -26 -3 -3 -17 2 -31 11 -14 9 -25 13 -25 8 0 -15 52 -34
63 -23 5 5 21 6 39 0 17 -4 33 -8 37 -7 3 0 13 0 21 -1 12 -1 13 -3 1 -10 -10
-7 -5 -11 17 -16 18 -3 37 -3 43 1 8 4 9 3 5 -4 -4 -7 -4 -12 1 -12 4 0 19 -3
33 -6 20 -4 22 -3 10 5 -13 9 -13 11 0 11 8 0 21 -9 28 -20 7 -12 16 -19 21
-16 4 3 21 1 37 -4 l29 -8 -35 -2 c-29 -2 -24 -5 30 -16 74 -15 206 -16 234
-2 11 6 21 6 25 1 3 -5 24 -10 46 -11 27 -2 35 1 26 7 -11 7 -9 10 10 16 14 5
25 3 27 -4 4 -13 39 -13 67 0 15 7 11 7 -14 3 -22 -4 -31 -3 -27 4 3 6 -4 13
-16 15 -13 2 0 2 27 -1 28 -2 55 -8 60 -12 20 -16 64 3 106 46 34 35 39 44 24
44 -15 0 -16 3 -7 12 15 15 16 31 0 22 -7 -5 -8 -3 -4 5 5 7 11 10 14 7 3 -3
15 2 26 11 20 18 20 18 2 -10 -10 -16 -16 -31 -13 -33 7 -7 56 80 50 88 -2 5
-12 8 -21 8 -14 0 -15 -2 -2 -10 8 -5 12 -10 10 -12 -29 -18 -50 -26 -50 -19
0 6 5 13 10 16 20 12 -2 26 -32 20 -40 -9 -126 4 -107 16 11 7 12 9 0 9 -10 0
-11 3 -2 13 9 11 -8 17 -90 31 -62 10 -106 13 -113 7 -16 -12 -85 -19 -89 -8
-1 5 -59 11 -127 13 -69 2 -111 0 -95 -4z m202 -18 c-3 -3 -12 -4 -19 -1 -8 3
-5 6 6 6 11 1 17 -2 13 -5z m423 -188 c0 -3 -4 -8 -10 -11 -5 -3 -10 -1 -10 4
0 6 5 11 10 11 6 0 10 -2 10 -4z"/>
<path d="M6130 3932 c0 -5 7 -9 15 -9 8 0 12 4 9 9 -3 4 -9 8 -15 8 -5 0 -9
-4 -9 -8z"/>
<path d="M6168 3899 c-3 -8 0 -23 8 -34 16 -21 18 -5 5 29 -6 16 -9 17 -13 5z"/>
<path d="M6128 3863 c6 -2 18 -2 25 0 6 3 1 5 -13 5 -14 0 -19 -2 -12 -5z"/>
<path d="M5985 3752 c-95 -92 -125 -113 -146 -107 -44 14 -15 -15 86 -86 106
-74 197 -111 338 -135 88 -15 130 -28 77 -24 -49 4 -57 1 -35 -16 14 -10 42
-14 98 -13 49 1 74 5 66 10 -8 5 -12 9 -9 9 47 7 97 4 92 -5 -3 -5 1 -5 9 1 8
7 29 15 46 19 18 3 35 10 38 15 3 5 -9 5 -27 -1 -42 -11 -55 -12 -42 0 12 11
105 33 112 26 3 -3 0 -5 -6 -5 -7 0 -12 -4 -12 -9 0 -5 21 -3 47 5 28 9 49 10
53 5 3 -6 17 -5 35 3 17 8 45 19 63 26 17 7 32 16 32 21 0 5 6 9 14 9 8 0 18
5 22 12 5 8 2 9 -9 5 -10 -3 -17 -2 -17 3 0 6 7 10 16 10 8 0 12 5 9 10 -3 6
3 10 14 10 12 0 21 4 21 9 0 4 -10 6 -22 4 -13 -2 -34 1 -48 7 -22 9 -20 10
13 5 21 -4 44 -2 50 3 7 6 21 11 31 13 10 2 -55 4 -145 5 -143 1 -274 12 -331
30 -20 6 -25 -12 -5 -19 6 -2 -1 -3 -16 -1 -17 2 -26 0 -22 -6 3 -6 16 -10 28
-11 12 0 17 -3 10 -5 -15 -7 -142 31 -216 63 -55 25 -68 42 -36 51 11 3 11 2
1 -6 -11 -7 -11 -10 3 -15 9 -4 13 -3 10 3 -3 6 2 10 12 10 17 1 17 1 0 11 -9
6 -26 7 -37 4 -13 -4 -22 0 -30 15 -6 11 -16 20 -23 20 -8 0 -8 -3 1 -9 27
-17 -24 -19 -54 -2 -66 37 -94 57 -96 68 -2 7 -30 -13 -63 -45z m852 -178 c-3
-3 -12 -4 -19 -1 -8 3 -5 6 6 6 11 1 17 -2 13 -5z m-287 -164 c-19 -13 -30
-13 -30 0 0 6 10 10 23 10 18 0 19 -2 7 -10z"/>
<path d="M6440 3706 c0 -2 11 -6 25 -8 13 -3 22 -1 19 3 -5 9 -44 13 -44 5z"/>
<path d="M6517 3689 c7 -7 15 -10 18 -7 3 3 -2 9 -12 12 -14 6 -15 5 -6 -5z"/>
<path d="M6588 3383 c7 -3 16 -2 19 1 4 3 -2 6 -13 5 -11 0 -14 -3 -6 -6z"/>
<path d="M6730 3356 c0 -2 7 -7 16 -10 8 -3 12 -2 9 4 -6 10 -25 14 -25 6z"/>
<path d="M6648 3333 c6 -2 18 -2 25 0 6 3 1 5 -13 5 -14 0 -19 -2 -12 -5z"/>
<path d="M6155 3199 c5 -16 4 -19 -5 -14 -9 5 -11 4 -6 -4 4 -6 12 -9 17 -6 5
4 13 -4 18 -17 14 -34 13 -10 -1 29 -13 36 -34 47 -23 12z"/>
<path d="M6091 3145 c0 -5 6 -21 14 -35 8 -14 14 -20 14 -15 0 6 -6 21 -14 35
-8 14 -14 21 -14 15z"/>
<path d="M6210 3086 c0 -8 5 -18 10 -21 6 -3 10 1 10 9 0 8 -4 18 -10 21 -5 3
-10 -1 -10 -9z"/>
<path d="M6291 2719 c-1 -9 7 -23 17 -30 15 -12 16 -12 6 1 -6 8 -14 22 -17
30 -5 13 -6 12 -6 -1z"/>
<path d="M6346 2605 c-3 -9 0 -15 9 -15 16 0 20 16 6 24 -5 3 -11 -1 -15 -9z"/>
<path d="M9618 643 c7 -3 16 -2 19 1 4 3 -2 6 -13 5 -11 0 -14 -3 -6 -6z"/>
<path d="M9586 573 c-6 -14 -5 -15 5 -6 7 7 10 15 7 18 -3 3 -9 -2 -12 -12z"/>
<path d="M9728 473 c7 -3 16 -2 19 1 4 3 -2 6 -13 5 -11 0 -14 -3 -6 -6z"/>
</g>
</svg>
